<svg xmlns="http://www.w3.org/2000/svg" width="76.74" height="70.345" viewBox="0 0 76.74 70.345">
  <path id="heart" d="M56.756,21.333c-8.512,0-15.543,7.906-18.386,11.638C35.527,29.239,28.5,21.333,19.984,21.333,8.965,21.333,0,31.464,0,43.915A23.588,23.588,0,0,0,7.416,61.372a1.58,1.58,0,0,0,.251.326L37.241,91.211a1.6,1.6,0,0,0,2.259,0L70.058,60.663l.315-.306c.25-.236.5-.475.773-.781a1.555,1.555,0,0,0,.284-.381,24.136,24.136,0,0,0,5.31-15.28C76.74,31.464,67.775,21.333,56.756,21.333ZM68.77,57.4a1.489,1.489,0,0,0-.12.162c-.15.172-.314.323-.476.478L38.368,87.82,10.292,59.8a1.6,1.6,0,0,0-.372-.476A20.333,20.333,0,0,1,3.2,43.915c0-10.689,7.53-19.385,16.787-19.385,9.152,0,16.963,11.938,17.041,12.058a1.663,1.663,0,0,0,2.689,0c.078-.12,7.889-12.058,17.041-12.058,9.257,0,16.787,8.7,16.787,19.385A20.909,20.909,0,0,1,68.77,57.4Z" transform="translate(0 -21.333)" fill="#591616"/>
</svg>
