<svg xmlns="http://www.w3.org/2000/svg" width="144.172" height="124.859" viewBox="0 0 144.172 124.859">
  <g id="LOGO" transform="translate(-0.129 -4.37)">
    <path id="Path_21" data-name="Path 21" d="M25.964,30.992q1.916.541,3.723,1.083,1.735.505,1.735,1.083,0,.615-.939.759c-.626.1-.988.23-1.083.4A38.235,38.235,0,0,1,26.617,40.6a4.623,4.623,0,0,1,.614.18q1.156.362,1.157.65a1.247,1.247,0,0,1-.65,1.048.969.969,0,0,0-.469.939V63.8q0,.722-1.879,1.083c-.531.048-.915.071-1.157.071q-1.3,0-1.3-1.157.253-4.156.253-8.348V45.516a41.265,41.265,0,0,1-4.048,4.264l-.578-.543a46.062,46.062,0,0,0,4.626-8.421A54.571,54.571,0,0,0,25.964,30.992Zm3.579,14.456a29.954,29.954,0,0,0,5.06.325h3.036V37.967q0-3.9-.289-6.831,1.806.181,4.482.65,1.88.253,1.879.794,0,.579-1.157.939-.867.217-.867.794V45.771h2.638a10.469,10.469,0,0,0,1.157-1.481q1.337-1.7,1.555-1.7.722,0,2.24,1.626,1.554,1.625,1.555,1.988c0,.361-.253.543-.759.543H41.688v6.217H45.3a9.72,9.72,0,0,0,1.337-1.626q1.447-1.842,1.7-1.844.8,0,2.422,1.771Q52.424,53,52.422,53.433q0,.579-.759.578H41.69v3.036q0,3.324.145,6.613,0,.722-1.915,1.083a11.707,11.707,0,0,1-1.265.109q-1.3,0-1.3-1.192.288-3.615.289-6.613V54.012H33.487q-3.181,0-4.482.109l-.614-1.446a33.922,33.922,0,0,0,5.1.289h4.155V46.747H34.6q-3.143,0-4.444.145ZM30.59,35.22a19.1,19.1,0,0,1,4.734,3.036,3.542,3.542,0,0,1,1.337,2.277,3.7,3.7,0,0,1-.867,2.493A2.144,2.144,0,0,1,34.022,44a1.163,1.163,0,0,1-.794-.325,6.941,6.941,0,0,1-.723-2.422,17.783,17.783,0,0,0-2.529-5.638Zm15.034-.9q1.842.651,3.541,1.265,1.663.615,1.662,1.373,0,.324-.832.434-.8.107-.9.253A33.13,33.13,0,0,1,42.731,44l-.469-.434A39.474,39.474,0,0,0,45.624,34.315Z" transform="translate(12.916 18.658)" fill="#591616"/>
    <path id="Path_22" data-name="Path 22" d="M74.468,31.108a5.339,5.339,0,0,1,2.349,1.3q1.987,1.337,1.988,1.879,0,.4-.794.832-.686.4-.794.759v4.916q0,.722-1.951,1.048a10.788,10.788,0,0,1-1.228.109.894.894,0,0,1-1.012-1.012v-.578H68.8v5.53h4.337a12.872,12.872,0,0,0,1.3-1.555q1.373-1.771,1.626-1.771.722,0,2.277,1.7,1.589,1.663,1.59,2.06c0,.361-.242.543-.723.543H68.8v5.674h3.325q.9-1.156,1.7-1.988c.386-.531.735-.794,1.048-.794a6.545,6.545,0,0,1,2.277,1.121q2.059,1.408,2.06,1.915c0,.361-.277.723-.832,1.083A1.379,1.379,0,0,0,77.763,55v3.47q0,1.771.145,4.878,0,.722-1.988,1.083a12.69,12.69,0,0,1-1.337.109q-1.013,0-1.012-1.192v-1.3H60.7v1.446q0,.722-1.806,1.083a10.787,10.787,0,0,1-1.228.109,1.039,1.039,0,0,1-1.157-1.192q.145-1.916.145-3.866v-3.65a47.531,47.531,0,0,0-.289-5.312,32.3,32.3,0,0,1,5.349,1.879H64.79V46.868H60.453q-3.181,0-4.482.145l-.578-1.446a29.555,29.555,0,0,0,5.06.325H64.79v-5.53H54.924v1.192a88.629,88.629,0,0,1-.505,10.118A27.3,27.3,0,0,1,52,59.009a26.419,26.419,0,0,1-3.975,5.385l-.759-.325A35.541,35.541,0,0,0,49.9,55.793a86.181,86.181,0,0,0,.867-14.24A76.062,76.062,0,0,0,50.3,31.4a30.106,30.106,0,0,1,5.167,1.915h16.66q.758-.939,1.265-1.555A1.457,1.457,0,0,1,74.468,31.108ZM54.917,34.289v5.06H73.023v-5.06ZM60.7,61.069H73.564V53.551H60.7Z" transform="translate(33.035 18.74)" fill="#591616"/>
    <g id="Group_55" data-name="Group 55" transform="translate(50.869 16.351)">
      <rect id="Rectangle_80" data-name="Rectangle 80" width="0.803" height="25.588" transform="translate(13.661 0)" fill="#591616"/>
      <rect id="Rectangle_81" data-name="Rectangle 81" width="0.803" height="25.588" transform="translate(0 0)" fill="#591616"/>
      <g id="Group_54" data-name="Group 54" transform="translate(5.909 6.883)">
        <path id="Path_23" data-name="Path 23" d="M37.228,23.373H33.435V22.294a1.183,1.183,0,0,1,.24-.781.775.775,0,0,1,.626-.287.922.922,0,0,1,.561.175.939.939,0,0,1,.338.481h.01a.977.977,0,0,1,.289-.614.894.894,0,0,1,.636-.23.988.988,0,0,1,.788.349,1.3,1.3,0,0,1,.3.881v1.1Zm-3.392-.444h1.225v-.454a.858.858,0,0,0-.175-.573.612.612,0,0,0-.5-.209q-.554,0-.553.728Zm1.624,0h1.364v-.6a.9.9,0,0,0-.185-.607.638.638,0,0,0-.509-.216q-.671,0-.672.915v.51Z" transform="translate(-33.435 -11.552)" fill="#591616"/>
        <path id="Path_24" data-name="Path 24" d="M37.228,18.223v.492l-1.063.4v1.607l1.063.378V21.6l-3.793-1.454v-.461Zm-1.463,1.039-1.616.6a1.562,1.562,0,0,1-.253.058v.01a1.286,1.286,0,0,1,.253.061l1.616.59Z" transform="translate(-33.435 -13.525)" fill="#591616"/>
        <path id="Path_25" data-name="Path 25" d="M37.228,15.461v.544l-3.022,1.951a1.314,1.314,0,0,1-.238.122v.015a4.051,4.051,0,0,1,.52-.02h2.74v.444H33.435v-.577l2.975-1.9c.124-.08.208-.131.253-.153v-.01a4.082,4.082,0,0,1-.558.027h-2.67v-.444h3.793Z" transform="translate(-33.435 -15.461)" fill="#591616"/>
      </g>
    </g>
    <g id="Group_57" data-name="Group 57" transform="translate(80.289 90.767)">
      <rect id="Rectangle_82" data-name="Rectangle 82" width="0.803" height="25.588" transform="translate(13.661)" fill="#591616"/>
      <rect id="Rectangle_83" data-name="Rectangle 83" width="0.803" height="25.588" fill="#591616"/>
      <g id="Group_56" data-name="Group 56" transform="translate(5.305 9.676)">
        <path id="Path_26" data-name="Path 26" d="M52.809,63.689a1.7,1.7,0,0,1,1.049.286A1,1,0,0,1,54.17,65.1h-.439a.625.625,0,0,0,.1-.371q0-.6-1.019-.6H50.377v-.444h2.432Z" transform="translate(-50.377 -58.869)" fill="#591616"/>
        <path id="Path_27" data-name="Path 27" d="M52.636,60.855q1.6,0,1.6,1.441,0,1.38-1.536,1.381h-2.32v-.444h2.289q1.166,0,1.167-.983,0-.949-1.126-.949h-2.33v-.444h2.259Z" transform="translate(-50.377 -60.855)" fill="#591616"/>
      </g>
    </g>
    <g id="Group_58" data-name="Group 58" transform="translate(0.129 4.37)">
      <path id="Path_28" data-name="Path 28" d="M108.258,129.229H36.172L.129,66.8,36.172,4.37h72.086L144.3,66.8Zm-71.044-1.806h70l35-60.624-35-60.622h-70L2.213,66.8Z" transform="translate(-0.129 -4.37)" fill="#591616"/>
      <path id="Path_29" data-name="Path 29" d="M103.073,122.222h-66.4l-.075-.129L3.472,64.718l.075-.129L36.673,7.213h66.4l.075.129,33.124,57.375-.075.129Zm-66.1-.514h65.807l32.9-56.991-32.9-56.991H36.969L4.066,64.718Z" transform="translate(2.214 -2.377)" fill="#591616"/>
    </g>
  </g>
</svg>
