<svg xmlns="http://www.w3.org/2000/svg" width="171.911" height="148.882" viewBox="0 0 171.911 148.882">
  <g id="LOGO" transform="translate(-0.129 -4.37)">
    <path id="Path_21" data-name="Path 21" d="M27.388,30.992q2.285.645,4.44,1.292,2.069.6,2.069,1.292,0,.733-1.12.9c-.746.116-1.178.274-1.292.475a45.591,45.591,0,0,1-3.318,7.5,5.513,5.513,0,0,1,.732.215q1.378.432,1.379.775a1.487,1.487,0,0,1-.775,1.249,1.155,1.155,0,0,0-.56,1.12v24.3q0,.861-2.241,1.292c-.633.057-1.091.085-1.379.085q-1.552,0-1.552-1.379.3-4.956.3-9.954V48.31a49.2,49.2,0,0,1-4.827,5.084l-.69-.647a54.925,54.925,0,0,0,5.516-10.041A65.071,65.071,0,0,0,27.388,30.992Zm4.267,17.237a35.717,35.717,0,0,0,6.034.387h3.62V39.309q0-4.655-.345-8.145,2.154.216,5.344.775,2.242.3,2.241.947,0,.691-1.379,1.12-1.034.259-1.034.947V48.614h3.146a12.483,12.483,0,0,0,1.379-1.766q1.594-2.026,1.854-2.026.861,0,2.671,1.939,1.853,1.938,1.854,2.371c0,.43-.3.647-.9.647h-10v7.413h4.31a11.591,11.591,0,0,0,1.594-1.939q1.725-2.2,2.026-2.2.949,0,2.888,2.111,1.984,2.069,1.981,2.586,0,.691-.9.69H46.14v3.62q0,3.964.172,7.885,0,.861-2.284,1.292a13.96,13.96,0,0,1-1.509.13q-1.552,0-1.552-1.422.344-4.311.345-7.885v-3.62H36.359q-3.794,0-5.344.13l-.732-1.724a40.448,40.448,0,0,0,6.076.345h4.955V49.778H37.687q-3.748,0-5.3.172Zm1.249-12.2a22.775,22.775,0,0,1,5.644,3.62,4.224,4.224,0,0,1,1.594,2.716,4.41,4.41,0,0,1-1.034,2.973A2.557,2.557,0,0,1,37,46.507a1.387,1.387,0,0,1-.947-.387,8.277,8.277,0,0,1-.862-2.888,21.2,21.2,0,0,0-3.016-6.723Zm17.927-1.079q2.2.776,4.223,1.509,1.984.733,1.981,1.637,0,.386-.992.517-.949.128-1.077.3a39.5,39.5,0,0,1-7.585,7.585l-.56-.517A47.069,47.069,0,0,0,50.831,34.955Z" transform="translate(18.947 27.371)" fill="#fff"/>
    <path id="Path_22" data-name="Path 22" d="M79.7,31.108a6.366,6.366,0,0,1,2.8,1.552q2.37,1.594,2.371,2.241,0,.475-.947.992-.818.475-.947.9v5.861q0,.861-2.326,1.249a12.864,12.864,0,0,1-1.464.13,1.066,1.066,0,0,1-1.207-1.207v-.69H72.941v6.593h5.172a15.35,15.35,0,0,0,1.552-1.854Q81.3,44.769,81.6,44.769q.861,0,2.716,2.026,1.9,1.984,1.9,2.456c0,.43-.288.647-.862.647H72.943v6.766h3.965q1.077-1.378,2.026-2.371c.46-.633.876-.947,1.249-.947A7.8,7.8,0,0,1,82.9,54.683q2.455,1.679,2.456,2.284c0,.43-.331.862-.992,1.292a1.644,1.644,0,0,0-.732,1.337v4.137q0,2.111.172,5.817,0,.861-2.371,1.292a15.13,15.13,0,0,1-1.594.13q-1.208,0-1.207-1.422V68H63.291v1.724q0,.861-2.154,1.292a12.862,12.862,0,0,1-1.464.13,1.239,1.239,0,0,1-1.379-1.422q.173-2.285.172-4.61V60.759a56.676,56.676,0,0,0-.345-6.334A38.514,38.514,0,0,1,64.5,56.666h3.663V49.9H62.991q-3.794,0-5.344.172l-.69-1.724a35.242,35.242,0,0,0,6.034.387h5.172V42.143H56.4v1.422a105.681,105.681,0,0,1-.6,12.065,32.556,32.556,0,0,1-2.888,8.747,31.5,31.5,0,0,1-4.74,6.421l-.9-.387a42.38,42.38,0,0,0,3.146-9.869,102.763,102.763,0,0,0,1.034-16.979,90.7,90.7,0,0,0-.56-12.11,35.9,35.9,0,0,1,6.161,2.284H76.91q.9-1.12,1.509-1.854A1.738,1.738,0,0,1,79.7,31.108ZM56.39,34.9v6.034H77.979V34.9Zm6.894,31.933H78.624V57.869H63.283Z" transform="translate(48.459 27.49)" fill="#fff"/>
    <g id="Group_55" data-name="Group 55" transform="translate(60.632 18.656)">
      <rect id="Rectangle_80" data-name="Rectangle 80" width="0.957" height="30.511" transform="translate(16.29 0)" fill="#fff"/>
      <rect id="Rectangle_81" data-name="Rectangle 81" width="0.957" height="30.511" transform="translate(0 0)" fill="#fff"/>
      <g id="Group_54" data-name="Group 54" transform="translate(7.046 8.208)">
        <path id="Path_23" data-name="Path 23" d="M37.958,23.822H33.435V22.536a1.411,1.411,0,0,1,.286-.931.925.925,0,0,1,.746-.343,1.1,1.1,0,0,1,.669.209,1.12,1.12,0,0,1,.4.574h.012a1.165,1.165,0,0,1,.345-.732,1.065,1.065,0,0,1,.759-.274,1.178,1.178,0,0,1,.939.416,1.55,1.55,0,0,1,.359,1.051v1.316Zm-4.044-.529h1.46v-.542a1.024,1.024,0,0,0-.209-.683.73.73,0,0,0-.592-.249q-.66,0-.659.868Zm1.937,0h1.627v-.718a1.077,1.077,0,0,0-.221-.724.761.761,0,0,0-.606-.258q-.8,0-.8,1.091v.608Z" transform="translate(-33.435 -9.726)" fill="#fff"/>
        <path id="Path_24" data-name="Path 24" d="M37.958,18.223v.586l-1.268.479V21.2l1.268.45v.59l-4.523-1.734v-.55Zm-1.744,1.239-1.927.71a1.862,1.862,0,0,1-.3.069v.012a1.533,1.533,0,0,1,.3.073l1.927.7Z" transform="translate(-33.435 -12.621)" fill="#fff"/>
        <path id="Path_25" data-name="Path 25" d="M37.958,15.461v.649l-3.6,2.326a1.567,1.567,0,0,1-.284.146V18.6a4.831,4.831,0,0,1,.621-.024h3.267v.529H33.435v-.688l3.547-2.263c.148-.1.247-.156.3-.183V15.96a4.867,4.867,0,0,1-.665.032H33.435v-.529h4.523Z" transform="translate(-33.435 -15.461)" fill="#fff"/>
      </g>
    </g>
    <g id="Group_57" data-name="Group 57" transform="translate(95.712 107.39)">
      <rect id="Rectangle_82" data-name="Rectangle 82" width="0.957" height="30.511" transform="translate(16.29)" fill="#fff"/>
      <rect id="Rectangle_83" data-name="Rectangle 83" width="0.957" height="30.511" fill="#fff"/>
      <g id="Group_56" data-name="Group 56" transform="translate(6.326 11.538)">
        <path id="Path_26" data-name="Path 26" d="M53.277,63.689a2.026,2.026,0,0,1,1.251.341,1.192,1.192,0,0,1,.371,1.347h-.523a.745.745,0,0,0,.124-.442q0-.715-1.215-.716H50.377v-.529h2.9Z" transform="translate(-50.377 -57.941)" fill="#fff"/>
        <path id="Path_27" data-name="Path 27" d="M53.07,60.855q1.9,0,1.9,1.718,0,1.646-1.831,1.647H50.377V63.69h2.73q1.39,0,1.391-1.172,0-1.132-1.343-1.132H50.377v-.529H53.07Z" transform="translate(-50.377 -60.855)" fill="#fff"/>
      </g>
    </g>
    <g id="Group_58" data-name="Group 58" transform="translate(0.129 4.37)">
      <path id="Path_28" data-name="Path 28" d="M129.063,153.252H43.107L.129,78.81,43.107,4.37h85.956L172.04,78.812ZM44.35,151.1h83.471L169.558,78.81,127.821,6.524H44.35L2.613,78.81Z" transform="translate(-0.129 -4.37)" fill="#fff"/>
      <path id="Path_29" data-name="Path 29" d="M122.237,144.35H43.061l-.089-.154L3.472,75.782l.089-.154,39.5-68.415h79.176l.089.154,39.5,68.415-.089.154Zm-78.823-.612h78.468l39.234-67.956L121.882,7.825H43.414L4.18,75.782Z" transform="translate(3.308 -1.447)" fill="#fff"/>
    </g>
  </g>
</svg>
