<svg id="handshake" xmlns="http://www.w3.org/2000/svg" width="109" height="71.075" viewBox="0 0 109 71.075">
  <path id="Path_6" data-name="Path 6" d="M73.469,98.862,45.9,89.353a10.676,10.676,0,0,0-8.036.491l-1.384.67a7.8,7.8,0,0,1-6.049.335L28.067,90a2.439,2.439,0,0,0-.335-.179l-14.107-4.8a1.364,1.364,0,0,0-1.027.067,1.321,1.321,0,0,0-.67.759L.075,120.424a1.338,1.338,0,0,0,.826,1.7l14.13,4.844a1.064,1.064,0,0,0,.446.089,1.3,1.3,0,0,0,.58-.134,1.321,1.321,0,0,0,.67-.759L28.133,92.9l1.429.513a10.59,10.59,0,0,0,8.125-.469l1.384-.67a7.843,7.843,0,0,1,5.982-.379l26.54,9.152a6.314,6.314,0,0,1-2.21,4.085c-1.295.893-3.17.938-5.536.112l-11.585-3.951a1.379,1.379,0,0,0-1.071.089,1.416,1.416,0,0,0-.67.848c-.022.067-1.741,6.406-7.1,9.263-3.393,1.83-7.589,1.9-12.478.223a1.334,1.334,0,1,0-.871,2.522,22.947,22.947,0,0,0,7.388,1.339,14.949,14.949,0,0,0,7.232-1.763c4.777-2.567,7.076-7.255,7.946-9.576l10.29,3.527c3.237,1.116,5.893.96,7.946-.446,3.3-2.277,3.46-6.964,3.482-7.165A1.328,1.328,0,0,0,73.469,98.862ZM14.651,124,3.044,120.022,14.026,87.991l11.295,3.862.268.134.045.022Z" transform="translate(0 -84.952)" fill="#591616"/>
  <path id="Path_7" data-name="Path 7" d="M184.249,119.438,168.133,86.692a1.321,1.321,0,0,0-.759-.67,1.364,1.364,0,0,0-1.027.067l-13.415,6.563a1.344,1.344,0,0,0-.625,1.786l15.625,31.92-5.246,4.8A62.78,62.78,0,0,1,147.8,141.313L122.106,153.88a2.885,2.885,0,0,1-2.277.134,3.031,3.031,0,0,1-1.719-1.518,2.885,2.885,0,0,1-.134-2.277,3.031,3.031,0,0,1,1.518-1.719l14.353-7.031a1.338,1.338,0,0,0-1.161-2.411l-14.04,6.875-7.076,3.46a2.985,2.985,0,1,1-2.634-5.357l20.625-10.089a1.338,1.338,0,1,0-1.161-2.411l-15.268,7.478-5.357,2.612-2.522,1.228a2.985,2.985,0,1,1-2.634-5.357l2.545-1.25,18.46-9.04a1.338,1.338,0,0,0-1.161-2.411l-11.853,5.8L104,133.835a2.885,2.885,0,0,1-2.277.134,3.031,3.031,0,0,1-1.719-1.518,2.885,2.885,0,0,1-.134-2.277,3.031,3.031,0,0,1,1.518-1.719l9.8-4.8a1.338,1.338,0,1,0-1.161-2.411l-9.8,4.8a5.675,5.675,0,0,0-2.879,3.259,5.637,5.637,0,0,0,2.656,6.808,5.654,5.654,0,0,0,3.973,9.688c.246,0,.491-.022.737-.045a5.743,5.743,0,0,0,.491,3.415,5.65,5.65,0,0,0,5.089,3.17,5.519,5.519,0,0,0,2.478-.58l2.433-1.205a5.4,5.4,0,0,0,.558,3.058,5.675,5.675,0,0,0,3.259,2.879,5.868,5.868,0,0,0,1.853.313,5.683,5.683,0,0,0,2.478-.58l25.692-12.567a65.219,65.219,0,0,0,15.513-10.6l5.826-5.357,13.237-6.473A1.344,1.344,0,0,0,184.249,119.438Zm-14.063,5.446L155.3,94.46l11.027-5.38L181.191,119.5Z" transform="translate(-75.379 -85.729)" fill="#591616"/>
</svg>
