<svg xmlns="http://www.w3.org/2000/svg" width="18.23" height="32.119" viewBox="0 0 18.23 32.119">
  <path id="facebook" d="M11.761,32.119H6.617a1.56,1.56,0,0,1-1.558-1.558v-11.6h-3A1.56,1.56,0,0,1,.5,17.4V12.43a1.56,1.56,0,0,1,1.558-1.558h3V8.382A8.476,8.476,0,0,1,7.3,2.309,8.073,8.073,0,0,1,13.252,0l3.923.006A1.56,1.56,0,0,1,18.73,1.564V6.18a1.559,1.559,0,0,1-1.558,1.558H14.532c-.805,0-1.011.161-1.054.211-.072.082-.158.314-.158.955v1.967h3.655a1.584,1.584,0,0,1,.771.2,1.564,1.564,0,0,1,.8,1.363l0,4.971a1.56,1.56,0,0,1-1.558,1.558H13.319v11.6a1.56,1.56,0,0,1-1.558,1.558ZM6.942,30.236h4.494V18.116a1.041,1.041,0,0,1,1.04-1.04h4.186l0-4.321H12.476a1.041,1.041,0,0,1-1.04-1.04V8.9a3.207,3.207,0,0,1,.63-2.2,3.191,3.191,0,0,1,2.465-.848h2.316V1.888l-3.6-.006c-3.891,0-6.309,2.491-6.309,6.5v3.332a1.041,1.041,0,0,1-1.04,1.04H2.383v4.321H5.9a1.041,1.041,0,0,1,1.04,1.04ZM17.171,1.889h0Zm0,0" transform="translate(-0.5 0)" fill="#707070"/>
</svg>
