<svg id="instagram" xmlns="http://www.w3.org/2000/svg" width="32.119" height="32.119" viewBox="0 0 32.119 32.119">
  <path id="Path_16" data-name="Path 16" d="M23.424,0H8.693A8.7,8.7,0,0,0,0,8.694V23.425a8.7,8.7,0,0,0,8.694,8.694H23.424a8.7,8.7,0,0,0,8.694-8.694V8.694A8.7,8.7,0,0,0,23.424,0Zm6.811,23.425a6.819,6.819,0,0,1-6.811,6.811H8.693a6.819,6.819,0,0,1-6.811-6.811V8.694A6.819,6.819,0,0,1,8.693,1.883H23.424a6.819,6.819,0,0,1,6.811,6.811Zm0,0" transform="translate(0.001 0)" fill="#707070"/>
  <path id="Path_17" data-name="Path 17" d="M124.786,116a8.782,8.782,0,1,0,8.782,8.782A8.792,8.792,0,0,0,124.786,116Zm0,15.682a6.9,6.9,0,1,1,6.9-6.9A6.907,6.907,0,0,1,124.786,131.686Zm0,0" transform="translate(-108.727 -108.727)" fill="#707070"/>
  <path id="Path_18" data-name="Path 18" d="M360.572,66.285a2.6,2.6,0,1,0,2.6,2.6A2.6,2.6,0,0,0,360.572,66.285Zm0,3.307a.712.712,0,1,1,.712-.712A.713.713,0,0,1,360.572,69.592Zm0,0" transform="translate(-335.52 -62.127)" fill="#707070"/>
</svg>
