<svg id="placeholder" xmlns="http://www.w3.org/2000/svg" width="54.616" height="70.345" viewBox="0 0 54.616 70.345">
  <path id="Path_9" data-name="Path 9" d="M93.015,11A27.352,27.352,0,0,0,65.7,38.315C65.7,53,90.862,79.74,91.924,80.874a1.5,1.5,0,0,0,2.167,0C95.168,79.74,120.316,53,120.316,38.315A27.33,27.33,0,0,0,93.015,11Zm0,66.63C88.164,72.3,68.7,50.186,68.7,38.315a24.315,24.315,0,0,1,48.63,0C117.33,50.186,97.867,72.29,93.015,77.63Z" transform="translate(-65.7 -11)" fill="#591616"/>
  <path id="Path_10" data-name="Path 10" d="M174.036,105.6a13.736,13.736,0,1,0,13.736,13.736A13.746,13.746,0,0,0,174.036,105.6Zm0,24.473a10.751,10.751,0,1,1,10.751-10.751A10.763,10.763,0,0,1,174.036,130.073Z" transform="translate(-146.721 -92.021)" fill="#591616"/>
</svg>
