<svg xmlns="http://www.w3.org/2000/svg" width="138" height="138" viewBox="0 0 138 138">
  <g id="Group_1" data-name="Group 1" transform="translate(695 211)">
    <circle id="Ellipse_2" data-name="Ellipse 2" cx="9" cy="9" r="9" transform="translate(-695 -211)" fill="#fff"/>
    <circle id="Ellipse_3" data-name="Ellipse 3" cx="9" cy="9" r="9" transform="translate(-655 -211)" fill="#fff"/>
    <circle id="Ellipse_4" data-name="Ellipse 4" cx="9" cy="9" r="9" transform="translate(-615 -211)" fill="#fff"/>
    <circle id="Ellipse_5" data-name="Ellipse 5" cx="9" cy="9" r="9" transform="translate(-575 -211)" fill="#fff"/>
    <circle id="Ellipse_6" data-name="Ellipse 6" cx="9" cy="9" r="9" transform="translate(-695 -171)" fill="#fff"/>
    <circle id="Ellipse_7" data-name="Ellipse 7" cx="9" cy="9" r="9" transform="translate(-655 -171)" fill="#fff"/>
    <circle id="Ellipse_8" data-name="Ellipse 8" cx="9" cy="9" r="9" transform="translate(-615 -171)" fill="#fff"/>
    <circle id="Ellipse_9" data-name="Ellipse 9" cx="9" cy="9" r="9" transform="translate(-575 -171)" fill="#fff"/>
    <circle id="Ellipse_10" data-name="Ellipse 10" cx="9" cy="9" r="9" transform="translate(-695 -131)" fill="#fff"/>
    <circle id="Ellipse_11" data-name="Ellipse 11" cx="9" cy="9" r="9" transform="translate(-655 -131)" fill="#fff"/>
    <circle id="Ellipse_12" data-name="Ellipse 12" cx="9" cy="9" r="9" transform="translate(-615 -131)" fill="#fff"/>
    <circle id="Ellipse_13" data-name="Ellipse 13" cx="9" cy="9" r="9" transform="translate(-575 -131)" fill="#fff"/>
    <circle id="Ellipse_14" data-name="Ellipse 14" cx="9" cy="9" r="9" transform="translate(-695 -91)" fill="#fff"/>
    <circle id="Ellipse_15" data-name="Ellipse 15" cx="9" cy="9" r="9" transform="translate(-655 -91)" fill="#fff"/>
    <circle id="Ellipse_16" data-name="Ellipse 16" cx="9" cy="9" r="9" transform="translate(-615 -91)" fill="#fff"/>
    <circle id="Ellipse_17" data-name="Ellipse 17" cx="9" cy="9" r="9" transform="translate(-575 -91)" fill="#fff"/>
  </g>
</svg>
