<svg id="phone" xmlns="http://www.w3.org/2000/svg" width="20" height="20" viewBox="0 0 20 20">
  <g id="Group_33" data-name="Group 33">
    <path id="Path_15" data-name="Path 15" d="M18.4,13.128a11.355,11.355,0,0,1-3.566-.568,1.57,1.57,0,0,0-1.585.334l-2.249,1.7A12.428,12.428,0,0,1,5.407,9.005l1.648-2.19a1.617,1.617,0,0,0,.4-1.638A11.373,11.373,0,0,1,6.883,1.6,1.607,1.607,0,0,0,5.278,0H1.6A1.607,1.607,0,0,0,0,1.6,18.416,18.416,0,0,0,18.4,20,1.607,1.607,0,0,0,20,18.4V14.732A1.607,1.607,0,0,0,18.4,13.128Zm.494,5.267a.494.494,0,0,1-.494.494A17.3,17.3,0,0,1,1.111,1.6.494.494,0,0,1,1.6,1.111H5.278a.494.494,0,0,1,.494.494A12.459,12.459,0,0,0,6.4,5.517a.553.553,0,0,1-.176.57L4.31,8.616a.556.556,0,0,0-.052.586A13.792,13.792,0,0,0,10.8,15.741a.553.553,0,0,0,.588-.051l2.587-1.96a.49.49,0,0,1,.5-.117,12.476,12.476,0,0,0,3.92.626.494.494,0,0,1,.494.494Z" fill="#707070"/>
  </g>
</svg>
