<svg xmlns="http://www.w3.org/2000/svg" width="15.528" height="20" viewBox="0 0 15.528 20">
  <g id="Group_32" data-name="Group 32" transform="translate(0.351 0)">
    <path id="Path_13" data-name="Path 13" d="M73.466,11A7.776,7.776,0,0,0,65.7,18.766c0,4.175,7.154,11.778,7.456,12.1a.427.427,0,0,0,.616,0c.306-.322,7.456-7.925,7.456-12.1A7.77,7.77,0,0,0,73.466,11Zm0,18.944c-1.379-1.514-6.913-7.8-6.913-11.178a6.913,6.913,0,1,1,13.826,0C80.379,22.141,74.845,28.426,73.466,29.944Z" transform="translate(-66.051 -11)" fill="#707070"/>
    <path id="Path_14" data-name="Path 14" d="M164.953,105.6a4.909,4.909,0,1,0,4.653,4.9A4.786,4.786,0,0,0,164.953,105.6Zm0,8.733a3.842,3.842,0,1,1,3.641-3.837A3.747,3.747,0,0,1,164.953,114.333Z" transform="translate(-157.651 -102.983)" fill="#707070"/>
  </g>
</svg>
