<svg id="youtube" xmlns="http://www.w3.org/2000/svg" width="32.119" height="24.327" viewBox="0 0 32.119 24.327">
  <path id="Path_19" data-name="Path 19" d="M199.971,110.568l-7.1-3.883a1.3,1.3,0,0,0-1.929,1.143v7.7a1.3,1.3,0,0,0,1.921,1.148l7.1-3.816a1.3,1.3,0,0,0,.008-2.291Zm-7.143,3.991V108.8l5.3,2.9Zm0,0" transform="translate(-178.967 -99.841)" fill="#707070"/>
  <path id="Path_20" data-name="Path 20" d="M31.882,5.742V5.727A7.346,7.346,0,0,0,30.465,2,5.226,5.226,0,0,0,27,.376l-.16-.019L26.787.351C22.541.043,16.129,0,16.064,0h-.011C15.989,0,9.576.043,5.292.351L5.235.357l-.15.018A5.1,5.1,0,0,0,1.643,2.049a7.7,7.7,0,0,0-1.4,3.66l0,.033C.226,5.849,0,8.41,0,10.981v2.4c0,2.571.227,5.132.236,5.24l0,.016a7.273,7.273,0,0,0,1.411,3.682,5.333,5.333,0,0,0,3.577,1.6c.131.015.243.028.32.041l.074.01c2.452.233,10.139.348,10.465.353h.02c.064,0,6.477-.042,10.723-.351l.056-.006c.054-.007.114-.013.18-.02a4.977,4.977,0,0,0,3.412-1.632,7.7,7.7,0,0,0,1.4-3.66l0-.033c.01-.108.236-2.669.236-5.24v-2.4c0-2.571-.227-5.132-.236-5.24Zm-1.646,7.643c0,2.38-.208,4.83-.227,5.055a5.976,5.976,0,0,1-.923,2.607,3.1,3.1,0,0,1-2.221,1.031l-.2.023c-4.107.3-10.278.343-10.562.344-.319,0-7.893-.121-10.27-.341-.122-.02-.253-.035-.392-.051a3.52,3.52,0,0,1-2.407-1.005l-.017-.019a5.422,5.422,0,0,1-.905-2.581c-.015-.17-.228-2.65-.228-5.063v-2.4c0-2.377.207-4.825.227-5.055a5.854,5.854,0,0,1,.923-2.608A3.248,3.248,0,0,1,5.3,2.245l.153-.018c4.167-.3,10.382-.343,10.6-.345s6.436.046,10.566.345l.166.02A3.37,3.37,0,0,1,29.1,3.29L29.1,3.3a5.509,5.509,0,0,1,.905,2.619c.014.161.228,2.646.228,5.064Zm0,0" transform="translate(0.001 0)" fill="#707070"/>
</svg>
